# xmcd CD database file
#
# Track frame offsets:
#	225
#	14852
#	31581
#	48920
#	67231
#	90019
#	111006
#	128786
#	142051
#	161277
#	175951
#	190559
#	209271
#
# Disc length: 3042 seconds
#
# Revision: 0
# Processed by: cddbd v1.4PL0 Copyright (c) Steve Scherf et al.
# Submitted via: CDex 1.40Release
#
DISCID=aa0bdf0d
DTITLE=Chris Ardoin And Double Clutchin' - Life
DYEAR=2002
DGENRE=Blues
TTITLE0=All I See Is Pain
TTITLE1=Call Me
TTITLE2=11:24
TTITLE3=Thinking Bout Leavin'
TTITLE4=I Got It
TTITLE5=Pass Me By
TTITLE6=Commitment
TTITLE7=Messed Up
TTITLE8=Your Body
TTITLE9=I'm The One
TTITLE10=La Robe Barree
TTITLE11=I Like That Feeling
TTITLE12=Parking Lot Pimpin'
EXTD=YEAR: 2002 ID3G: 0
EXTT0=
EXTT1=
EXTT2=
EXTT3=
EXTT4=
EXTT5=
EXTT6=
EXTT7=
EXTT8=
EXTT9=
EXTT10=
EXTT11=
EXTT12=
PLAYORDER=
